<?xml version="1.0" encoding="UTF-8"?>
<svg width="512" height="512" viewBox="0 0 24 24" xmlns="http://www.w3.org/2000/svg">
    <rect width="24" height="24" fill="#1F2937"/>
    <path d="M4 5a1 1 0 0 1 1-1h14a1 1 0 0 1 1 1v14a1 1 0 0 1-1 1H5a1 1 0 0 1-1-1V5z" fill="#4B5563"/>
    <path d="M7 8.75A.75.75 0 0 1 7.75 8h8.5a.75.75 0 0 1 0 1.5h-8.5A.75.75 0 0 1 7 8.75zm0 3.25a.75.75 0 0 1 .75-.75h8.5a.75.75 0 0 1 0 1.5h-8.5A.75.75 0 0 1 7 12zm0 3.25a.75.75 0 0 1 .75-.75h8.5a.75.75 0 0 1 0 1.5h-8.5a.75.75 0 0 1-.75-.75z" fill="#E5E7EB"/>
</svg>
